<?xml version="1.0" encoding="utf-8"?>
<!-- Generator: Adobe Illustrator 17.0.0, SVG Export Plug-In . SVG Version: 6.00 Build 0)  -->
<!DOCTYPE svg PUBLIC "-//W3C//DTD SVG 1.1//EN" "http://www.w3.org/Graphics/SVG/1.1/DTD/svg11.dtd">
<svg version="1.1" id="Capa_1" xmlns="http://www.w3.org/2000/svg" xmlns:xlink="http://www.w3.org/1999/xlink" x="0px" y="0px"
	 width="106.65px" height="106.65px" viewBox="230.14 0 106.65 106.65" enable-background="new 230.14 0 106.65 106.65"
	 xml:space="preserve">
<g>
	<g>
		<rect x="232.115" y="2.975" fill="#2B4A9A" width="102.7" height="102.7"/>
		<path fill="#201A40" d="M336.79,107.65H230.14V1h106.65V107.65z M234.09,103.7h98.75V4.95h-98.75V103.7z"/>
	</g>
	<path fill="#FFFFFF" d="M317.04,72.1c-0.506,0-1.011-0.194-1.396-0.579l-32.179-32.179l-32.179,32.179
		c-0.772,0.772-2.02,0.772-2.793,0c-0.772-0.772-0.772-2.02,0-2.793l34.971-34.971l34.971,34.971c0.772,0.772,0.772,2.02,0,2.793
		C318.051,71.906,317.546,72.1,317.04,72.1z"/>
</g>
</svg>
