<?xml version="1.0" encoding="utf-8"?>
<!-- Generator: Adobe Illustrator 17.0.0, SVG Export Plug-In . SVG Version: 6.00 Build 0)  -->
<!DOCTYPE svg PUBLIC "-//W3C//DTD SVG 1.1//EN" "http://www.w3.org/Graphics/SVG/1.1/DTD/svg11.dtd">
<svg version="1.1" xmlns="http://www.w3.org/2000/svg" xmlns:xlink="http://www.w3.org/1999/xlink" x="0px" y="0px"
	 width="1611.337px" height="461.386px" viewBox="0 0 1611.337 461.386" enable-background="new 0 0 1611.337 461.386"
	 xml:space="preserve">
<g id="Guides_For_Artboard">
</g>
<g id="Layer_1">
	<g id="XMLID_224_">
		<g>
			<path fill="#9B9DA0" d="M341.408,460.228h-13.929l15.438-83.817h17.874l15.441,83.817h-13.929l-2.553-18.578h-15.787
				L341.408,460.228z M346.054,429.116h11.607l-5.691-35.986h-0.232L346.054,429.116z"/>
			<path fill="#9B9DA0" d="M420.696,417.738h23.566v42.489h-6.963l-2.67-6.271c-4.296,5.109-7.779,7.43-14.516,7.43
				c-11.375,0-19.27-8.129-19.27-21.474v-43.186c0-11.841,6.967-21.474,21.132-21.474c14.391,0,21.591,10.446,21.591,22.987v5.341
				h-13.699c0-12.541-2.554-15.791-8.242-15.791c-3.483,0-6.387,2.091-6.387,9.167v43.073c0,5.337,1.745,8.817,6.737,8.817
				c5.804,0,7.891-3.25,7.891-11.608v-8.121h-9.171V417.738z"/>
			<path fill="#9B9DA0" d="M475.135,376.41h14.396v63.272c0,6.146,2.44,9.163,7.666,9.163c5.22,0,7.658-3.017,7.658-9.163V376.41
				h14.395v62.684c0,14.4-8.358,22.291-22.053,22.291c-13.703,0-22.062-7.892-22.062-22.291V376.41z"/>
			<path fill="#9B9DA0" d="M557.79,460.228h-13.929l15.441-83.817h17.874l15.441,83.817h-13.932l-2.554-18.578h-15.787
				L557.79,460.228z M562.434,429.116h11.604l-5.683-35.986h-0.237L562.434,429.116z"/>
			<path fill="#9B9DA0" d="M685.483,397.068c-0.583-7.188-4.412-9.279-7.662-9.279c-4.645,0-7.195,3.021-7.195,8.246
				c0,14.274,29.253,21.12,29.253,43.878c0,13.815-9.291,21.474-22.753,21.474c-13.349,0-21.015-10.679-21.595-23.22l13.7-1.975
				c0.58,8.475,3.946,12.654,8.591,12.654c4.992,0,8.358-2.663,8.358-7.658c0-16.604-29.253-21.016-29.253-45.04
				c0-13.353,8.125-20.896,22.286-20.896c11.725,0,18.69,8.475,19.966,20.312L685.483,397.068z"/>
			<path fill="#9B9DA0" d="M729.011,460.228V376.41h14.395v83.817H729.011z"/>
			<path fill="#9B9DA0" d="M775.562,460.228V376.41h13.349l17.532,47.944h0.233V376.41h13v83.817H807.14l-18.341-52.352h-0.229
				v52.352H775.562z"/>
			<path fill="#9B9DA0" d="M891.182,460.228V376.41h14.395v71.276h22.641v12.541H891.182z"/>
			<path fill="#9B9DA0" d="M963.853,372.002h-9.634l9.171-16.72h15.67L963.853,372.002z M955.265,460.228V376.41h14.392v83.817
				H955.265z"/>
			<path fill="#9B9DA0" d="M1059.506,376.41v83.817h-12.536v-65.476h-0.229l-13.008,65.476h-6.962l-13-65.476h-0.233v65.476h-12.536
				V376.41h18.92l10.22,48.99h0.229l10.212-48.99H1059.506z"/>
			<path fill="#9B9DA0" d="M1090.967,460.228V376.41h14.391v83.817H1090.967z"/>
			<path fill="#9B9DA0" d="M1145.873,388.947h-13.928V376.41h42.252v12.537h-13.929v71.28h-14.395V388.947z"/>
			<path fill="#9B9DA0" d="M1198.925,460.228V376.41h38.543v12.537h-24.148v21.591h18.574v12.541h-18.574v24.607h25.774v12.541
				H1198.925z"/>
		</g>
	</g>
	<g id="XMLID_202_">
		<linearGradient id="XMLID_2_" gradientUnits="userSpaceOnUse" x1="70.0743" y1="300.0713" x2="70.0743" y2="60.0721">
			<stop  offset="0" style="stop-color:#609F3B"/>
			<stop  offset="0.9543" style="stop-color:#AEB627"/>
		</linearGradient>
		<path id="XMLID_222_" fill="url(#XMLID_2_)" d="M47.213,330.504L0,2.978h36.277L70.079,278.32L103.374,2.978h36.775
			L93.936,330.504H47.213z"/>
		<linearGradient id="XMLID_3_" gradientUnits="userSpaceOnUse" x1="250.2467" y1="300.0713" x2="250.2467" y2="60.0721">
			<stop  offset="0" style="stop-color:#609F3B"/>
			<stop  offset="0.9543" style="stop-color:#AEB627"/>
		</linearGradient>
		<path id="XMLID_220_" fill="url(#XMLID_3_)" d="M198.806,330.504V2.978h102.881v30.318h-66.599v117.792h55.664V181.9h-55.664
			v118.286h66.599v30.318H198.806z"/>
		<linearGradient id="XMLID_4_" gradientUnits="userSpaceOnUse" x1="425.9359" y1="300.0713" x2="425.9359" y2="60.0721">
			<stop  offset="0" style="stop-color:#609F3B"/>
			<stop  offset="0.9543" style="stop-color:#AEB627"/>
		</linearGradient>
		<path id="XMLID_217_" fill="url(#XMLID_4_)" d="M451.783,330.504l-24.35-131.706H398.6v131.706h-36.281V2.978h84.489
			c19.386,0,35.289,15.904,35.289,35.29v124.747c0,13.917-7.953,25.844-19.386,31.807l26.842,135.682H451.783z M445.816,33.793
			H398.6v136.176h47.216V33.793z"/>
		<linearGradient id="XMLID_5_" gradientUnits="userSpaceOnUse" x1="592.4476" y1="300.0713" x2="592.4476" y2="60.0721">
			<stop  offset="0" style="stop-color:#609F3B"/>
			<stop  offset="0.9543" style="stop-color:#AEB627"/>
		</linearGradient>
		<path id="XMLID_215_" fill="url(#XMLID_5_)" d="M574.058,330.504V33.793h-39.263V2.978H650.1v30.815h-39.267v296.711H574.058z"/>
		<linearGradient id="XMLID_6_" gradientUnits="userSpaceOnUse" x1="726.3903" y1="300.0713" x2="726.3903" y2="60.0721">
			<stop  offset="0" style="stop-color:#609F3B"/>
			<stop  offset="0.9543" style="stop-color:#AEB627"/>
		</linearGradient>
		<path id="XMLID_213_" fill="url(#XMLID_6_)" d="M708.252,330.504V2.978h36.277v327.526H708.252z"/>
		<linearGradient id="XMLID_7_" gradientUnits="userSpaceOnUse" x1="867.5404" y1="300.0713" x2="867.5404" y2="60.0721">
			<stop  offset="0" style="stop-color:#609F3B"/>
			<stop  offset="0.9543" style="stop-color:#AEB627"/>
		</linearGradient>
		<path id="XMLID_211_" fill="url(#XMLID_7_)" d="M816.101,330.504V2.978h102.88v30.318h-66.598v117.792h55.663V181.9h-55.663
			v118.286h66.598v30.318H816.101z"/>
		<linearGradient id="XMLID_8_" gradientUnits="userSpaceOnUse" x1="1043.2378" y1="300.0713" x2="1043.2378" y2="60.0721">
			<stop  offset="0" style="stop-color:#609F3B"/>
			<stop  offset="0.9543" style="stop-color:#AEB627"/>
		</linearGradient>
		<path id="XMLID_209_" fill="url(#XMLID_8_)" d="M1069.583,330.504V33.793h-53.682v296.711H979.62V2.978h36.281v18.387
			c4.976-12.424,12.929-18.387,28.833-18.387h26.831c19.382,0,35.29,15.904,35.29,35.29v292.237H1069.583z"/>
		<linearGradient id="XMLID_9_" gradientUnits="userSpaceOnUse" x1="1221.676" y1="300.0713" x2="1221.676" y2="60.0721">
			<stop  offset="0" style="stop-color:#609F3B"/>
			<stop  offset="0.9543" style="stop-color:#AEB627"/>
		</linearGradient>
		<path id="XMLID_207_" fill="url(#XMLID_9_)" d="M1203.286,330.504V33.793h-39.262V2.978h115.304v30.815h-39.266v296.711H1203.286z
			"/>
		<linearGradient id="XMLID_10_" gradientUnits="userSpaceOnUse" x1="1388.9126" y1="300.0713" x2="1388.9126" y2="60.0721">
			<stop  offset="0" style="stop-color:#609F3B"/>
			<stop  offset="0.9543" style="stop-color:#AEB627"/>
		</linearGradient>
		<path id="XMLID_205_" fill="url(#XMLID_10_)" d="M1337.473,330.504V2.978h102.88v30.318h-66.602v117.792h55.663V181.9h-55.663
			v118.286h66.602v30.318H1337.473z"/>
		<linearGradient id="XMLID_11_" gradientUnits="userSpaceOnUse" x1="1553.6805" y1="300.0716" x2="1553.6805" y2="60.0723">
			<stop  offset="0" style="stop-color:#609F3B"/>
			<stop  offset="0.9543" style="stop-color:#AEB627"/>
		</linearGradient>
		<path id="XMLID_203_" fill="url(#XMLID_11_)" d="M1531.314,333.49c-19.386,0-35.29-15.908-35.29-35.29v-46.225h36.281v51.193
			h42.742v-67.097l-72.065-125.24c-6.959-11.434-6.959-23.36-6.959-23.36V35.286c0-19.383,15.904-35.286,35.29-35.286h44.725
			c19.88,0,35.291,15.904,35.291,35.286v46.221h-36.281V30.314h-42.742v60.636l72.558,125.241
			c6.959,11.926,6.465,22.865,6.465,22.865V298.2c0,19.383-15.41,35.29-35.291,35.29H1531.314z"/>
	</g>
</g>
</svg>
