<?xml version="1.0" encoding="UTF-8"?> <svg xmlns="http://www.w3.org/2000/svg" xmlns:xlink="http://www.w3.org/1999/xlink" width="105px" height="72px" viewBox="0 0 105 72"><!-- Generator: Sketch 52.5 (67469) - http://www.bohemiancoding.com/sketch --><title>Group 72</title><desc>Created with Sketch.</desc><defs><polygon id="path-1" points="0.5089 0 8.7819 0 8.7819 13.9479 0.5089 13.9479"></polygon><polygon id="path-3" points="0.9776 0 9.2506 0 9.2506 13.9479 0.9776 13.9479"></polygon><polygon id="path-5" points="0 0.4478 12.8378 0.4478 12.8378 14.3958 0 14.3958"></polygon><polygon id="path-7" points="0.1061 0.3834 15.771 0.3834 15.771 14.3754 0.1061 14.3754"></polygon><polygon id="path-9" points="0.8799 0.0884 10.6349 0.0884 10.6349 9 0.8799 9"></polygon><polygon id="path-11" points="0.9412 0.0884 10.3492 0.0884 10.3492 9 0.9412 9"></polygon><polygon id="path-13" points="0.9844 0.0884 10.7394 0.0884 10.7394 9 0.9844 9"></polygon></defs><g id="Page-1" stroke="none" stroke-width="1" fill="none" fill-rule="evenodd"><g id="Group-72"><path d="M27.4811,6.7852 C27.4811,6.9732 27.5231,7.0372 27.6481,7.0992 C28.0461,7.2252 28.5911,7.2672 29.0521,7.2672 C29.7841,7.2672 30.0361,7.2042 30.3501,6.9732 C30.9161,6.5762 31.5431,5.8012 31.5431,4.3352 C31.5431,1.8222 29.8261,1.1722 28.7371,1.1722 C28.2761,1.1722 27.8361,1.1942 27.6481,1.2362 C27.5231,1.2772 27.4811,1.3412 27.4811,1.4872 L27.4811,6.7852 Z M25.1351,5.4042 C25.1351,2.7012 25.1351,2.1992 25.1141,1.6332 C25.0721,1.0262 24.9041,0.8372 24.3181,0.6702 C24.1721,0.6282 23.8571,0.6062 23.5851,0.6062 C23.3971,0.6062 23.2711,0.5442 23.2711,0.4192 C23.2711,0.2932 23.4181,0.2512 23.6901,0.2512 C24.6531,0.2512 25.8261,0.2932 26.2041,0.2932 C26.8321,0.2932 28.5071,0.2512 29.0721,0.2512 C30.2461,0.2512 31.5861,0.3562 32.5701,1.0052 C33.0931,1.3612 33.8681,2.2622 33.8681,3.4552 C33.8681,4.7742 33.1141,5.9482 31.3141,7.3922 C32.9461,9.4032 34.2461,11.0162 35.3561,12.1252 C36.3811,13.1532 37.0311,13.2352 37.3241,13.2992 C37.5121,13.3402 37.6171,13.3402 37.7641,13.3402 C37.9101,13.3402 37.9941,13.4452 37.9941,13.5282 C37.9941,13.6752 37.8691,13.7172 37.6381,13.7172 L35.8791,13.7172 C34.8531,13.7172 34.3501,13.6132 33.8681,13.3622 C33.0721,12.9642 32.3811,12.1252 31.3551,10.7432 C30.6221,9.7802 29.8471,8.5862 29.6171,8.3142 C29.5121,8.2092 29.4071,8.1892 29.2821,8.1892 L27.6271,8.1462 C27.5441,8.1462 27.4811,8.1892 27.4811,8.2932 L27.4811,8.5442 C27.4811,10.1992 27.5021,11.5812 27.5851,12.3342 C27.6481,12.8582 27.7321,13.1932 28.2971,13.2782 C28.5701,13.3192 28.9671,13.3402 29.1981,13.3402 C29.3451,13.3402 29.4281,13.4452 29.4281,13.5282 C29.4281,13.6552 29.2821,13.7172 29.0521,13.7172 C27.9831,13.7172 26.4541,13.6552 26.1821,13.6552 C25.8261,13.6552 24.6531,13.7172 23.9201,13.7172 C23.6901,13.7172 23.5641,13.6552 23.5641,13.5282 C23.5641,13.4452 23.6271,13.3402 23.8571,13.3402 C24.1291,13.3402 24.3391,13.3192 24.5071,13.2782 C24.8841,13.1932 24.9881,12.8582 25.0511,12.3342 C25.1351,11.5812 25.1351,10.1782 25.1351,8.5442 L25.1351,5.4042 Z" id="Fill-1" fill="#010202"></path><path d="M49.9064,7.3082 C49.9064,3.3712 47.5394,0.9412 44.5654,0.9412 C42.5134,0.9412 40.1054,2.0312 40.1054,6.4292 C40.1054,10.0952 42.1994,12.9842 45.6754,12.9842 C46.9744,12.9842 49.9064,12.3772 49.9064,7.3082 M37.3824,6.9732 C37.3824,3.9372 39.5184,0.0002 45.1104,0.0002 C49.7604,0.0002 52.6504,2.5762 52.6504,6.6602 C52.6504,10.7432 49.6764,13.9482 44.9224,13.9482 C39.5604,13.9482 37.3824,10.1362 37.3824,6.9732" id="Fill-3" fill="#010202"></path><g id="Group-7" transform="translate(54.000000, 0.000000)"><mask id="mask-2" fill="white"><use xlink:href="#path-1"></use></mask><g id="Clip-6"></g><path d="M0.8649,13.4869 C0.5719,13.3619 0.5089,13.2779 0.5089,12.8809 C0.5089,11.9169 0.5929,10.8059 0.6139,10.5129 C0.6139,10.2409 0.6979,10.0529 0.8439,10.0529 C1.0109,10.0529 1.0329,10.2199 1.0329,10.3459 C1.0329,10.5769 1.0959,10.9539 1.1999,11.2669 C1.5979,12.5869 2.9799,13.0269 4.1319,13.0269 C5.7239,13.0269 6.6869,12.0219 6.6869,10.7649 C6.6869,9.9889 6.4979,9.2149 4.8649,8.2519 L3.7969,7.6229 C1.6189,6.3449 0.9069,5.1519 0.9069,3.5819 C0.9069,1.4029 3.0009,-0.0001 5.5559,-0.0001 C6.7499,-0.0001 7.6919,0.1679 8.1739,0.2939 C8.3419,0.3349 8.4259,0.3979 8.4259,0.5239 C8.4259,0.7529 8.3629,1.2569 8.3629,2.6589 C8.3629,3.0359 8.2789,3.2249 8.1329,3.2249 C8.0069,3.2249 7.9439,3.1199 7.9439,2.9109 C7.9439,2.7439 7.8599,2.1989 7.4629,1.7379 C7.1899,1.4029 6.6039,0.9009 5.4099,0.9009 C4.0909,0.9009 2.8969,1.5909 2.8969,2.8059 C2.8969,3.6019 3.1899,4.2299 4.8439,5.1519 L5.5979,5.5699 C8.0279,6.9109 8.7819,8.2729 8.7819,9.8849 C8.7819,11.2049 8.2789,12.2719 6.9389,13.2159 C6.0589,13.8429 4.8439,13.9479 3.8599,13.9479 C2.7919,13.9479 1.6609,13.8429 0.8649,13.4869" id="Fill-5" fill="#010202" mask="url(#mask-2)"></path></g><g id="Group-10" transform="translate(64.000000, 0.000000)"><mask id="mask-4" fill="white"><use xlink:href="#path-3"></use></mask><g id="Clip-9"></g><path d="M1.3336,13.4869 C1.0406,13.3619 0.9776,13.2779 0.9776,12.8809 C0.9776,11.9169 1.0616,10.8059 1.0826,10.5129 C1.0826,10.2409 1.1666,10.0529 1.3126,10.0529 C1.4796,10.0529 1.5006,10.2199 1.5006,10.3459 C1.5006,10.5769 1.5636,10.9539 1.6686,11.2669 C2.0666,12.5869 3.4486,13.0269 4.6006,13.0269 C6.1916,13.0269 7.1556,12.0219 7.1556,10.7649 C7.1556,9.9889 6.9666,9.2149 5.3336,8.2519 L4.2656,7.6229 C2.0876,6.3449 1.3756,5.1519 1.3756,3.5819 C1.3756,1.4029 3.4696,-0.0001 6.0246,-0.0001 C7.2186,-0.0001 8.1606,0.1679 8.6426,0.2939 C8.8106,0.3349 8.8936,0.3979 8.8936,0.5239 C8.8936,0.7529 8.8306,1.2569 8.8306,2.6589 C8.8306,3.0359 8.7476,3.2249 8.6016,3.2249 C8.4746,3.2249 8.4126,3.1199 8.4126,2.9109 C8.4126,2.7439 8.3286,2.1989 7.9306,1.7379 C7.6586,1.4029 7.0716,0.9009 5.8786,0.9009 C4.5586,0.9009 3.3646,1.5909 3.3646,2.8059 C3.3646,3.6019 3.6576,4.2299 5.3126,5.1519 L6.0666,5.5699 C8.4956,6.9109 9.2506,8.2729 9.2506,9.8849 C9.2506,11.2049 8.7476,12.2719 7.4076,13.2159 C6.5276,13.8429 5.3126,13.9479 4.3286,13.9479 C3.2596,13.9479 2.1286,13.8429 1.3336,13.4869" id="Fill-8" fill="#010202" mask="url(#mask-4)"></path></g><path d="M77.2257,5.4039 C77.2257,2.7009 77.2257,2.1989 77.2047,1.6329 C77.1627,1.0259 76.9747,0.8169 76.5767,0.6909 C76.3667,0.6289 76.1367,0.6069 75.9067,0.6069 C75.7177,0.6069 75.6137,0.5659 75.6137,0.3979 C75.6137,0.2939 75.7597,0.2509 76.0527,0.2509 C76.7437,0.2509 78.0007,0.2939 78.5237,0.2939 C78.9847,0.2939 80.1787,0.2509 80.8907,0.2509 C81.1217,0.2509 81.2677,0.2939 81.2677,0.3979 C81.2677,0.5659 81.1637,0.6069 80.9747,0.6069 C80.7867,0.6069 80.6397,0.6289 80.4307,0.6709 C79.9277,0.7529 79.7807,1.0049 79.7387,1.6329 C79.6967,2.1989 79.6967,2.7009 79.6967,5.4039 L79.6967,8.5449 C79.6967,10.2619 79.6967,11.6869 79.7807,12.4409 C79.8437,12.9219 79.9697,13.1939 80.5137,13.2779 C80.7657,13.3199 81.1837,13.3409 81.4557,13.3409 C81.6647,13.3409 81.7497,13.4459 81.7497,13.5289 C81.7497,13.6549 81.6027,13.7169 81.3927,13.7169 C80.1787,13.7169 78.9217,13.6549 78.4187,13.6549 C78.0007,13.6549 76.7437,13.7169 76.0107,13.7169 C75.7807,13.7169 75.6547,13.6549 75.6547,13.5289 C75.6547,13.4459 75.7177,13.3409 75.9487,13.3409 C76.2207,13.3409 76.4297,13.3199 76.5977,13.2779 C76.9747,13.1939 77.0797,12.9429 77.1427,12.4189 C77.2257,11.6869 77.2257,10.2619 77.2257,8.5449 L77.2257,5.4039 Z" id="Fill-11" fill="#010202"></path><g id="Group-15" transform="translate(0.000000, 17.000000)"><mask id="mask-6" fill="white"><use xlink:href="#path-5"></use></mask><g id="Clip-14"></g><path d="M2.3038,12.4688 C0.4818,10.9398 -0.0002,8.9288 -0.0002,7.2118 C-0.0002,5.9978 0.3978,3.9028 2.1578,2.3318 C3.4978,1.1598 5.2568,0.4478 7.9998,0.4478 C9.1518,0.4478 9.8438,0.5308 10.6808,0.6358 C11.3718,0.7408 11.9788,0.8668 12.5238,0.9288 C12.7338,0.9498 12.7968,1.0338 12.7968,1.1378 C12.7968,1.2848 12.7548,1.4948 12.7128,2.1228 C12.6708,2.7088 12.6708,3.6938 12.6498,4.0498 C12.6288,4.3008 12.5658,4.4888 12.3978,4.4888 C12.2518,4.4888 12.2098,4.3428 12.2098,4.1118 C12.1888,3.5478 11.9588,2.9178 11.4968,2.4578 C10.8688,1.8498 9.6338,1.4108 7.9378,1.4108 C6.3248,1.4108 5.2988,1.7038 4.4608,2.4158 C3.0998,3.5888 2.7648,5.3058 2.7648,7.0448 C2.7648,11.2748 6.0318,13.2848 8.5028,13.2848 C10.1368,13.2848 11.0368,13.1588 11.7698,12.3428 C12.0838,11.9878 12.3348,11.4838 12.3978,11.1488 C12.4408,10.8778 12.4828,10.7928 12.6288,10.7928 C12.7548,10.7928 12.8378,10.9608 12.8378,11.1068 C12.8378,11.3168 12.6288,12.8668 12.4408,13.4738 C12.3558,13.7868 12.2728,13.8718 11.9588,13.9978 C11.2248,14.2908 9.8218,14.3958 8.6278,14.3958 C6.1158,14.3958 3.9788,13.8718 2.3038,12.4688" id="Fill-13" fill="#010202" mask="url(#mask-6)"></path></g><path d="M21.504,25.6988 C21.587,25.6988 21.609,25.6568 21.587,25.5948 L19.85,21.0698 C19.829,21.0078 19.808,20.9028 19.766,20.9028 C19.703,20.9028 19.682,21.0078 19.661,21.0698 L17.88,25.5728 C17.839,25.6568 17.88,25.6988 17.943,25.6988 L21.504,25.6988 Z M17.567,26.6838 C17.462,26.6838 17.441,26.7038 17.399,26.8078 L16.415,29.1958 C16.226,29.6358 16.143,30.0758 16.143,30.2848 C16.143,30.5998 16.311,30.7868 16.876,30.7868 L17.148,30.7868 C17.378,30.7868 17.42,30.8718 17.42,30.9758 C17.42,31.1228 17.316,31.1648 17.127,31.1648 C16.52,31.1648 15.661,31.1018 15.074,31.1018 C14.886,31.1018 13.901,31.1648 12.939,31.1648 C12.708,31.1648 12.604,31.1228 12.604,30.9758 C12.604,30.8718 12.667,30.7868 12.813,30.7868 C12.98,30.7868 13.19,30.7668 13.357,30.7668 C14.195,30.6408 14.508,30.0968 14.886,29.1958 L19.703,17.9908 C19.912,17.4898 20.059,17.2798 20.247,17.2798 C20.52,17.2798 20.603,17.4478 20.792,17.8448 C21.232,18.8298 24.31,26.1178 25.483,28.8198 C26.195,30.4318 26.719,30.6628 27.054,30.7248 C27.326,30.7668 27.536,30.7868 27.745,30.7868 C27.913,30.7868 27.996,30.8508 27.996,30.9758 C27.996,31.1228 27.892,31.1648 27.201,31.1648 C26.551,31.1648 25.211,31.1648 23.661,31.1228 C23.326,31.1018 23.116,31.1018 23.116,30.9758 C23.116,30.8718 23.159,30.8088 23.347,30.7868 C23.473,30.7668 23.598,30.5998 23.514,30.3898 L22.09,26.8078 C22.049,26.7038 21.985,26.6838 21.902,26.6838 L17.567,26.6838 Z" id="Fill-16" fill="#010202"></path><path d="M31.1124,17.7613 C31.1544,17.4683 31.3214,17.3013 31.4684,17.3013 C31.6564,17.3013 31.7824,17.3843 32.0334,17.8663 L36.9764,27.7933 L41.9194,17.7403 C42.0654,17.4473 42.2324,17.3013 42.4014,17.3013 C42.5474,17.3013 42.7564,17.4893 42.8194,17.8663 L44.4954,28.8613 C44.6624,29.9703 44.8304,30.4523 45.3954,30.6203 C45.9184,30.7673 46.2124,30.7873 46.4424,30.7873 C46.6094,30.7873 46.7364,30.8513 46.7364,30.9553 C46.7364,31.1023 46.5264,31.1643 46.2544,31.1643 C45.7934,31.1643 43.1754,31.0813 42.4424,31.0393 C42.0024,31.0183 41.8974,30.9343 41.8974,30.8293 C41.8974,30.7463 41.9824,30.6833 42.1074,30.6403 C42.2124,30.6003 42.2544,30.3903 42.1914,29.8873 L41.1644,22.1803 L41.1014,22.1803 L37.1444,30.1383 C36.7244,30.9763 36.6204,31.1443 36.4104,31.1443 C36.1804,31.1443 35.9714,30.7873 35.6784,30.2433 C35.2374,29.4273 33.7724,26.7043 33.5624,26.2013 C33.4154,25.8663 32.3274,23.6253 31.7194,22.3903 L31.6564,22.3903 L30.7774,29.3433 C30.7354,29.6573 30.7144,29.8873 30.7144,30.1803 C30.7144,30.5163 30.9654,30.6403 31.2794,30.7043 C31.5934,30.7673 31.7614,30.7873 31.9284,30.7873 C32.0964,30.7873 32.2214,30.8713 32.2214,30.9553 C32.2214,31.1233 32.0544,31.1643 31.7824,31.1643 C31.0084,31.1643 30.1694,31.1023 29.8344,31.1023 C29.4794,31.1023 28.5994,31.1643 28.0124,31.1643 C27.8234,31.1643 27.6774,31.1233 27.6774,30.9553 C27.6774,30.8713 27.7824,30.7873 27.9704,30.7873 C28.1174,30.7873 28.2424,30.7873 28.5364,30.7463 C29.0384,30.6833 29.2064,29.9703 29.2904,29.3843 L31.1124,17.7613 Z" id="Fill-18" fill="#010202"></path><path d="M49.1173,22.8511 C49.1173,20.1491 49.1173,19.6461 49.0963,19.0811 C49.0543,18.4731 48.8663,18.2651 48.4683,18.1381 C48.2583,18.0761 48.0283,18.0541 47.7983,18.0541 C47.6093,18.0541 47.5053,18.0131 47.5053,17.8451 C47.5053,17.7411 47.6513,17.6991 47.9443,17.6991 C48.6363,17.6991 49.8923,17.7411 50.4153,17.7411 C50.8773,17.7411 52.0703,17.6991 52.7823,17.6991 C53.0133,17.6991 53.1593,17.7411 53.1593,17.8451 C53.1593,18.0131 53.0543,18.0541 52.8663,18.0541 C52.6783,18.0541 52.5313,18.0761 52.3223,18.1181 C51.8193,18.2011 51.6723,18.4531 51.6303,19.0811 C51.5883,19.6461 51.5883,20.1491 51.5883,22.8511 L51.5883,25.9921 C51.5883,27.7091 51.5883,29.1341 51.6723,29.8881 C51.7353,30.3691 51.8613,30.6411 52.4053,30.7251 C52.6573,30.7671 53.0753,30.7871 53.3473,30.7871 C53.5573,30.7871 53.6413,30.8931 53.6413,30.9761 C53.6413,31.1021 53.4943,31.1641 53.2843,31.1641 C52.0703,31.1641 50.8143,31.1021 50.3113,31.1021 C49.8923,31.1021 48.6363,31.1641 47.9023,31.1641 C47.6733,31.1641 47.5463,31.1021 47.5463,30.9761 C47.5463,30.8931 47.6093,30.7871 47.8403,30.7871 C48.1123,30.7871 48.3213,30.7671 48.4893,30.7251 C48.8663,30.6411 48.9713,30.3901 49.0333,29.8671 C49.1173,29.1341 49.1173,27.7091 49.1173,25.9921 L49.1173,22.8511 Z" id="Fill-20" fill="#010202"></path><path d="M59.482,25.9918 C59.482,28.2748 59.482,29.4068 59.88,29.7418 C60.194,30.0128 60.906,30.1168 62.33,30.1168 C63.315,30.1168 64.027,30.0968 64.487,29.6158 C64.718,29.3848 64.906,28.8828 64.948,28.5478 C64.969,28.3798 65.011,28.2748 65.157,28.2748 C65.284,28.2748 65.325,28.4638 65.325,28.6728 C65.325,28.8828 65.199,30.2018 65.053,30.7248 C64.927,31.1228 64.843,31.2068 63.88,31.2068 C62.561,31.2068 61.492,31.1868 60.571,31.1438 C59.649,31.1228 58.875,31.1018 58.12,31.1018 C57.911,31.1018 57.513,31.1228 57.074,31.1228 C56.633,31.1438 56.173,31.1648 55.795,31.1648 C55.566,31.1648 55.44,31.1018 55.44,30.9758 C55.44,30.8928 55.503,30.7868 55.733,30.7868 C56.005,30.7868 56.215,30.7668 56.382,30.7248 C56.76,30.6408 56.864,30.3058 56.926,29.7828 C57.011,29.0288 57.011,27.6258 57.011,25.9918 L57.011,22.8508 C57.011,20.1488 57.011,19.6468 56.989,19.0808 C56.948,18.4728 56.78,18.2848 56.194,18.1178 C56.047,18.0758 55.817,18.0548 55.586,18.0548 C55.377,18.0548 55.272,17.9918 55.272,17.8668 C55.272,17.7408 55.398,17.6988 55.67,17.6988 C56.529,17.6988 57.702,17.7408 58.205,17.7408 C58.644,17.7408 60.152,17.6988 60.864,17.6988 C61.136,17.6988 61.262,17.7408 61.262,17.8668 C61.262,17.9918 61.157,18.0548 60.927,18.0548 C60.718,18.0548 60.424,18.0758 60.215,18.1178 C59.712,18.2008 59.565,18.4528 59.524,19.0808 C59.482,19.6468 59.482,20.1488 59.482,22.8508 L59.482,25.9918 Z" id="Fill-22" fill="#010202"></path><path d="M67.9391,22.8511 C67.9391,20.1491 67.9391,19.6461 67.9181,19.0811 C67.8761,18.4731 67.6881,18.2651 67.2901,18.1381 C67.0801,18.0761 66.8501,18.0541 66.6201,18.0541 C66.4311,18.0541 66.3271,18.0131 66.3271,17.8451 C66.3271,17.7411 66.4731,17.6991 66.7671,17.6991 C67.4581,17.6991 68.7141,17.7411 69.2371,17.7411 C69.6991,17.7411 70.8921,17.6991 71.6041,17.6991 C71.8351,17.6991 71.9811,17.7411 71.9811,17.8451 C71.9811,18.0131 71.8771,18.0541 71.6881,18.0541 C71.5001,18.0541 71.3531,18.0761 71.1441,18.1181 C70.6411,18.2011 70.4941,18.4531 70.4521,19.0811 C70.4101,19.6461 70.4101,20.1491 70.4101,22.8511 L70.4101,25.9921 C70.4101,27.7091 70.4101,29.1341 70.4941,29.8881 C70.5571,30.3691 70.6831,30.6411 71.2271,30.7251 C71.4791,30.7671 71.8971,30.7871 72.1691,30.7871 C72.3791,30.7871 72.4631,30.8931 72.4631,30.9761 C72.4631,31.1021 72.3161,31.1641 72.1061,31.1641 C70.8921,31.1641 69.6361,31.1021 69.1331,31.1021 C68.7141,31.1021 67.4581,31.1641 66.7241,31.1641 C66.4951,31.1641 66.3681,31.1021 66.3681,30.9761 C66.3681,30.8931 66.4311,30.7871 66.6621,30.7871 C66.9341,30.7871 67.1431,30.7671 67.3111,30.7251 C67.6881,30.6411 67.7931,30.3901 67.8551,29.8671 C67.9391,29.1341 67.9391,27.7091 67.9391,25.9921 L67.9391,22.8511 Z" id="Fill-24" fill="#010202"></path><path d="M85.7179,24.7559 C85.7179,20.8189 83.3509,18.3889 80.3769,18.3889 C78.3239,18.3889 75.9169,19.4789 75.9169,23.8769 C75.9169,27.5429 78.0109,30.4319 81.4869,30.4319 C82.7859,30.4319 85.7179,29.8239 85.7179,24.7559 M73.1939,24.4209 C73.1939,21.3849 75.3299,17.4469 80.9219,17.4469 C85.5719,17.4469 88.4609,20.0239 88.4609,24.1079 C88.4609,28.1909 85.4879,31.3959 80.7339,31.3959 C75.3719,31.3959 73.1939,27.5829 73.1939,24.4209" id="Fill-26" fill="#010202"></path><g id="Group-30" transform="translate(89.000000, 17.000000)"><mask id="mask-8" fill="white"><use xlink:href="#path-7"></use></mask><g id="Clip-29"></g><path d="M3.4151,11.7364 C3.4571,13.1174 3.6871,13.5364 4.0431,13.6624 C4.3571,13.7674 4.7131,13.7874 5.0071,13.7874 C5.2161,13.7874 5.3211,13.8714 5.3211,13.9764 C5.3211,14.1234 5.1531,14.1644 4.9021,14.1644 C3.7081,14.1644 2.8501,14.1024 2.5151,14.1024 C2.3461,14.1024 1.4671,14.1644 0.5241,14.1644 C0.2731,14.1644 0.1061,14.1444 0.1061,13.9764 C0.1061,13.8714 0.2311,13.7874 0.3991,13.7874 C0.6511,13.7874 0.9861,13.7674 1.2371,13.7044 C1.7181,13.5784 1.7811,13.0964 1.8021,11.5474 L1.9701,0.9914 C1.9701,0.6354 2.0961,0.3834 2.2841,0.3834 C2.5151,0.3834 2.7661,0.6564 3.0801,0.9714 C3.3101,1.2004 6.0751,4.0284 8.7551,6.6464 C10.0121,7.8824 12.4621,10.3964 12.7341,10.6464 L12.8181,10.6464 L12.6301,2.7294 C12.6091,1.6414 12.4411,1.3264 12.0011,1.1594 C11.7291,1.0544 11.2891,1.0544 11.0391,1.0544 C10.8081,1.0544 10.7451,0.9714 10.7451,0.8664 C10.7451,0.7184 10.9331,0.6984 11.2061,0.6984 C12.1691,0.6984 13.1541,0.7404 13.5521,0.7404 C13.7611,0.7404 14.4521,0.6984 15.3531,0.6984 C15.6031,0.6984 15.7711,0.7184 15.7711,0.8664 C15.7711,0.9714 15.6671,1.0544 15.4571,1.0544 C15.2681,1.0544 15.1221,1.0544 14.8921,1.1174 C14.3891,1.2644 14.2431,1.5774 14.2221,2.5834 L14.0121,13.8094 C14.0121,14.2064 13.8651,14.3754 13.7191,14.3754 C13.4041,14.3754 13.1541,14.1864 12.9651,13.9974 C11.8131,12.9304 9.5101,10.7314 7.5821,8.8664 C5.5721,6.9394 3.6241,4.7814 3.2681,4.4684 L3.2051,4.4684 L3.4151,11.7364 Z" id="Fill-28" fill="#010202" mask="url(#mask-8)"></path></g><path d="M12.3468,43.6417 C11.5708,42.9727 10.2858,41.7147 9.9378,41.3407 C9.5908,40.9657 8.7338,40.0017 8.5068,39.6667 C8.0518,40.0017 7.5828,40.6307 7.5828,41.7017 C7.5828,43.3737 8.7608,44.4447 10.1518,44.4447 C11.1818,44.4447 12.0658,43.9097 12.3468,43.6417 M8.1588,39.1577 C7.5968,38.4097 7.4888,37.8607 7.4758,37.2587 C7.4628,36.2017 8.3988,34.7967 10.7268,34.7967 C11.3838,34.7967 11.9858,34.9307 12.3468,35.0767 C12.5748,35.1577 12.5748,35.2647 12.5748,35.4257 C12.5748,35.8657 12.4668,36.9377 12.4278,37.1387 C12.4008,37.3387 12.3468,37.3657 12.2668,37.3657 C12.1868,37.3657 12.1728,37.3127 12.1728,37.1107 C12.1728,36.7637 12.0788,36.3347 11.7848,35.9867 C11.5168,35.6667 11.0488,35.3847 10.2998,35.3847 C9.7378,35.3847 8.8678,35.7727 8.8678,36.9097 C8.8678,38.1687 10.0188,39.2387 11.0888,40.4307 C11.5438,40.9517 13.1898,42.4367 13.4448,42.6637 C13.7118,42.2897 14.0868,41.4207 14.0868,40.6037 C14.0868,40.4027 14.0328,40.1627 13.8318,39.9877 C13.6578,39.8287 13.3778,39.7877 13.1768,39.7877 C13.0968,39.7877 13.0158,39.7607 13.0158,39.6807 C13.0158,39.5737 13.1228,39.5467 13.2298,39.5467 C13.5518,39.5467 14.0868,39.5597 14.8358,39.6407 C15.0908,39.6667 15.2908,39.7467 15.2908,39.9077 C15.2908,40.9377 14.7428,42.1827 13.9788,43.0797 C14.8768,43.8147 15.4778,44.1767 15.8398,44.3907 C16.2678,44.6447 17.0038,44.8587 17.2708,44.8587 C17.3908,44.8587 17.4588,44.8727 17.4588,44.9797 C17.4588,45.0597 17.3518,45.0997 17.0568,45.0997 L16.0268,45.0997 C14.5018,45.0997 14.0198,44.9537 12.8678,44.0697 C12.4278,44.4717 11.5308,45.2877 9.6978,45.2877 C6.8338,45.2877 5.9768,43.4957 5.9768,42.3307 C5.9768,40.7647 7.3558,39.5467 8.1588,39.1577" id="Fill-31" fill="#010202"></path><path d="M25.2672,41.607 C25.3202,41.607 25.3342,41.581 25.3202,41.541 L24.2092,38.65 C24.1962,38.609 24.1832,38.544 24.1562,38.544 C24.1162,38.544 24.1022,38.609 24.0892,38.65 L22.9522,41.527 C22.9252,41.581 22.9522,41.607 22.9922,41.607 L25.2672,41.607 Z M22.7512,42.236 C22.6842,42.236 22.6712,42.25 22.6442,42.317 L22.0152,43.842 C21.8942,44.123 21.8412,44.404 21.8412,44.539 C21.8412,44.739 21.9482,44.859 22.3092,44.859 L22.4832,44.859 C22.6302,44.859 22.6572,44.913 22.6572,44.98 C22.6572,45.074 22.5912,45.1 22.4702,45.1 C22.0822,45.1 21.5332,45.06 21.1582,45.06 C21.0382,45.06 20.4092,45.1 19.7932,45.1 C19.6462,45.1 19.5802,45.074 19.5802,44.98 C19.5802,44.913 19.6202,44.859 19.7132,44.859 C19.8202,44.859 19.9552,44.847 20.0612,44.847 C20.5972,44.766 20.7972,44.418 21.0382,43.842 L24.1162,36.683 C24.2492,36.362 24.3432,36.228 24.4642,36.228 C24.6382,36.228 24.6912,36.335 24.8122,36.588 C25.0932,37.218 27.0602,41.875 27.8092,43.602 C28.2652,44.632 28.5992,44.779 28.8132,44.819 C28.9872,44.847 29.1212,44.859 29.2552,44.859 C29.3622,44.859 29.4152,44.9 29.4152,44.98 C29.4152,45.074 29.3492,45.1 28.9072,45.1 C28.4922,45.1 27.6362,45.1 26.6452,45.074 C26.4312,45.06 26.2972,45.06 26.2972,44.98 C26.2972,44.913 26.3242,44.873 26.4452,44.859 C26.5252,44.847 26.6052,44.739 26.5512,44.605 L25.6412,42.317 C25.6152,42.25 25.5752,42.236 25.5212,42.236 L22.7512,42.236 Z" id="Fill-33" fill="#010202"></path><path d="M29.92,44.9532 C29.733,44.8722 29.692,44.8192 29.692,44.5642 C29.692,43.9492 29.746,43.2412 29.759,43.0532 C29.759,42.8792 29.813,42.7582 29.906,42.7582 C30.014,42.7582 30.027,42.8662 30.027,42.9462 C30.027,43.0932 30.067,43.3332 30.134,43.5342 C30.389,44.3772 31.272,44.6592 32.007,44.6592 C33.025,44.6592 33.64,44.0162 33.64,43.2132 C33.64,42.7182 33.52,42.2232 32.476,41.6072 L31.794,41.2062 C30.401,40.3902 29.946,39.6272 29.946,38.6232 C29.946,37.2322 31.285,36.3352 32.918,36.3352 C33.681,36.3352 34.282,36.4422 34.59,36.5222 C34.698,36.5492 34.751,36.5882 34.751,36.6692 C34.751,36.8172 34.711,37.1382 34.711,38.0352 C34.711,38.2752 34.657,38.3952 34.564,38.3952 C34.483,38.3952 34.443,38.3282 34.443,38.1952 C34.443,38.0882 34.39,37.7402 34.135,37.4452 C33.962,37.2322 33.587,36.9102 32.824,36.9102 C31.981,36.9102 31.218,37.3522 31.218,38.1272 C31.218,38.6362 31.405,39.0372 32.462,39.6272 L32.944,39.8942 C34.497,40.7502 34.979,41.6202 34.979,42.6512 C34.979,43.4952 34.657,44.1762 33.801,44.7792 C33.238,45.1802 32.462,45.2472 31.834,45.2472 C31.151,45.2472 30.429,45.1802 29.92,44.9532" id="Fill-35" fill="#010202"></path><path d="M44.503,41.0049 C44.503,38.4889 42.991,36.9379 41.091,36.9379 C39.779,36.9379 38.241,37.6319 38.241,40.4429 C38.241,42.7849 39.579,44.6319 41.8,44.6319 C42.63,44.6319 44.503,44.2429 44.503,41.0049 M36.501,40.7909 C36.501,38.8509 37.866,36.3349 41.439,36.3349 C44.41,36.3349 46.256,37.9809 46.256,40.5899 C46.256,43.1989 44.356,45.2479 41.318,45.2479 C37.892,45.2479 36.501,42.8119 36.501,40.7909" id="Fill-37" fill="#010202"></path><path d="M49.0358,44.0162 C47.8708,43.0392 47.5628,41.7552 47.5628,40.6572 C47.5628,39.8812 47.8178,38.5432 48.9418,37.5392 C49.7988,36.7892 50.9228,36.3352 52.6758,36.3352 C53.4108,36.3352 53.8528,36.3892 54.3888,36.4552 C54.8298,36.5222 55.2188,36.6022 55.5658,36.6432 C55.6998,36.6552 55.7408,36.7092 55.7408,36.7762 C55.7408,36.8702 55.7138,37.0042 55.6858,37.4052 C55.6598,37.7802 55.6598,38.4092 55.6468,38.6362 C55.6328,38.7962 55.5938,38.9172 55.4858,38.9172 C55.3918,38.9172 55.3658,38.8242 55.3658,38.6762 C55.3518,38.3152 55.2048,37.9142 54.9108,37.6202 C54.5088,37.2322 53.7198,36.9512 52.6358,36.9512 C51.6048,36.9512 50.9488,37.1382 50.4138,37.5932 C49.5438,38.3432 49.3298,39.4402 49.3298,40.5512 C49.3298,43.2542 51.4178,44.5382 52.9958,44.5382 C54.0398,44.5382 54.6158,44.4582 55.0848,43.9352 C55.2858,43.7082 55.4458,43.3872 55.4858,43.1732 C55.5128,42.9992 55.5388,42.9462 55.6328,42.9462 C55.7138,42.9462 55.7668,43.0532 55.7668,43.1462 C55.7668,43.2802 55.6328,44.2702 55.5128,44.6592 C55.4588,44.8592 55.4058,44.9122 55.2048,44.9932 C54.7368,45.1802 53.8398,45.2472 53.0778,45.2472 C51.4708,45.2472 50.1058,44.9122 49.0358,44.0162" id="Fill-39" fill="#010202"></path><path d="M58.2775,39.7872 C58.2775,38.0602 58.2775,37.7402 58.2645,37.3792 C58.2375,36.9902 58.1165,36.8562 57.8635,36.7762 C57.7295,36.7362 57.5815,36.7232 57.4355,36.7232 C57.3145,36.7232 57.2475,36.6972 57.2475,36.5882 C57.2475,36.5222 57.3405,36.4952 57.5285,36.4952 C57.9695,36.4952 58.7735,36.5222 59.1075,36.5222 C59.4025,36.5222 60.1645,36.4952 60.6195,36.4952 C60.7675,36.4952 60.8605,36.5222 60.8605,36.5882 C60.8605,36.6972 60.7935,36.7232 60.6735,36.7232 C60.5525,36.7232 60.4595,36.7362 60.3255,36.7632 C60.0045,36.8172 59.9105,36.9772 59.8835,37.3792 C59.8565,37.7402 59.8565,38.0602 59.8565,39.7872 L59.8565,41.7942 C59.8565,42.8912 59.8565,43.8032 59.9105,44.2842 C59.9505,44.5922 60.0315,44.7662 60.3785,44.8192 C60.5395,44.8472 60.8065,44.8592 60.9815,44.8592 C61.1145,44.8592 61.1685,44.9262 61.1685,44.9792 C61.1685,45.0602 61.0745,45.0992 60.9415,45.0992 C60.1645,45.0992 59.3615,45.0602 59.0405,45.0602 C58.7735,45.0602 57.9695,45.0992 57.5015,45.0992 C57.3545,45.0992 57.2745,45.0602 57.2745,44.9792 C57.2745,44.9262 57.3145,44.8592 57.4615,44.8592 C57.6355,44.8592 57.7695,44.8472 57.8765,44.8192 C58.1165,44.7662 58.1845,44.6042 58.2245,44.2702 C58.2775,43.8032 58.2775,42.8912 58.2775,41.7942 L58.2775,39.7872 Z" id="Fill-41" fill="#010202"></path><path d="M66.7467,41.607 C66.7997,41.607 66.8137,41.581 66.7997,41.541 L65.6897,38.65 C65.6757,38.609 65.6627,38.544 65.6357,38.544 C65.5957,38.544 65.5817,38.609 65.5687,38.65 L64.4317,41.527 C64.4047,41.581 64.4317,41.607 64.4717,41.607 L66.7467,41.607 Z M64.2307,42.236 C64.1637,42.236 64.1507,42.25 64.1237,42.317 L63.4947,43.842 C63.3737,44.123 63.3207,44.404 63.3207,44.539 C63.3207,44.739 63.4277,44.859 63.7887,44.859 L63.9627,44.859 C64.1097,44.859 64.1367,44.913 64.1367,44.98 C64.1367,45.074 64.0707,45.1 63.9497,45.1 C63.5617,45.1 63.0127,45.06 62.6377,45.06 C62.5177,45.06 61.8887,45.1 61.2737,45.1 C61.1257,45.1 61.0597,45.074 61.0597,44.98 C61.0597,44.913 61.0997,44.859 61.1937,44.859 C61.2997,44.859 61.4347,44.847 61.5407,44.847 C62.0767,44.766 62.2767,44.418 62.5177,43.842 L65.5957,36.683 C65.7287,36.362 65.8227,36.228 65.9437,36.228 C66.1177,36.228 66.1717,36.335 66.2917,36.588 C66.5727,37.218 68.5397,41.875 69.2887,43.602 C69.7447,44.632 70.0787,44.779 70.2927,44.819 C70.4667,44.847 70.6007,44.859 70.7347,44.859 C70.8417,44.859 70.8947,44.9 70.8947,44.98 C70.8947,45.074 70.8287,45.1 70.3867,45.1 C69.9717,45.1 69.1157,45.1 68.1247,45.074 C67.9107,45.06 67.7767,45.06 67.7767,44.98 C67.7767,44.913 67.8037,44.873 67.9247,44.859 C68.0047,44.847 68.0847,44.739 68.0307,44.605 L67.1217,42.317 C67.0947,42.25 67.0547,42.236 67.0007,42.236 L64.2307,42.236 Z" id="Fill-43" fill="#010202"></path><path d="M73.755,41.046 C73.755,42.25 73.769,43.12 73.782,43.347 C73.795,43.628 73.822,44.03 73.916,44.15 C74.063,44.364 74.531,44.605 75.455,44.605 C76.526,44.605 77.315,44.418 78.024,43.829 C78.787,43.199 79.028,42.183 79.028,41.005 C79.028,39.56 78.452,38.623 77.931,38.169 C76.846,37.204 75.562,37.084 74.639,37.084 C74.397,37.084 74.009,37.111 73.916,37.165 C73.809,37.204 73.769,37.259 73.769,37.392 C73.755,37.78 73.755,38.717 73.755,39.614 L73.755,41.046 Z M72.176,39.787 C72.176,38.061 72.176,37.74 72.163,37.379 C72.135,36.99 72.029,36.87 71.654,36.763 C71.56,36.736 71.36,36.723 71.185,36.723 C71.065,36.723 70.985,36.683 70.985,36.602 C70.985,36.523 71.079,36.495 71.253,36.495 C71.868,36.495 72.618,36.523 72.953,36.523 C73.314,36.523 74.156,36.495 74.866,36.495 C76.338,36.495 78.318,36.495 79.603,37.794 C80.192,38.382 80.714,39.333 80.714,40.685 C80.714,42.116 80.098,43.199 79.429,43.856 C78.894,44.391 77.649,45.194 75.482,45.194 C75.053,45.194 74.545,45.153 74.076,45.127 C73.608,45.088 73.18,45.06 72.885,45.06 C72.751,45.06 72.498,45.074 72.216,45.074 C71.935,45.088 71.641,45.1 71.4,45.1 C71.253,45.1 71.172,45.06 71.172,44.98 C71.172,44.926 71.213,44.859 71.36,44.859 C71.534,44.859 71.668,44.847 71.775,44.819 C72.015,44.766 72.083,44.551 72.123,44.217 C72.176,43.736 72.176,42.838 72.176,41.795 L72.176,39.787 Z" id="Fill-45" fill="#010202"></path><path d="M90.0089,41.0049 C90.0089,38.4889 88.4969,36.9379 86.5969,36.9379 C85.2849,36.9379 83.7459,37.6319 83.7459,40.4429 C83.7459,42.7849 85.0849,44.6319 87.3059,44.6319 C88.1359,44.6319 90.0089,44.2429 90.0089,41.0049 M82.0069,40.7909 C82.0069,38.8509 83.3709,36.3349 86.9449,36.3349 C89.9149,36.3349 91.7629,37.9809 91.7629,40.5899 C91.7629,43.1989 89.8619,45.2479 86.8249,45.2479 C83.3989,45.2479 82.0069,42.8119 82.0069,40.7909" id="Fill-47" fill="#010202"></path><path d="M93.712,44.9532 C93.524,44.8722 93.484,44.8192 93.484,44.5642 C93.484,43.9492 93.538,43.2412 93.55,43.0532 C93.55,42.8792 93.605,42.7582 93.698,42.7582 C93.805,42.7582 93.818,42.8662 93.818,42.9462 C93.818,43.0932 93.858,43.3332 93.925,43.5342 C94.18,44.3772 95.064,44.6592 95.799,44.6592 C96.816,44.6592 97.432,44.0162 97.432,43.2132 C97.432,42.7182 97.311,42.2232 96.267,41.6072 L95.585,41.2062 C94.193,40.3902 93.738,39.6272 93.738,38.6232 C93.738,37.2322 95.076,36.3352 96.709,36.3352 C97.472,36.3352 98.074,36.4422 98.382,36.5222 C98.489,36.5492 98.543,36.5882 98.543,36.6692 C98.543,36.8172 98.502,37.1382 98.502,38.0352 C98.502,38.2752 98.449,38.3952 98.355,38.3952 C98.275,38.3952 98.235,38.3282 98.235,38.1952 C98.235,38.0882 98.181,37.7402 97.927,37.4452 C97.753,37.2322 97.378,36.9102 96.615,36.9102 C95.773,36.9102 95.01,37.3522 95.01,38.1272 C95.01,38.6362 95.196,39.0372 96.254,39.6272 L96.736,39.8942 C98.288,40.7502 98.771,41.6202 98.771,42.6512 C98.771,43.4952 98.449,44.1762 97.592,44.7792 C97.031,45.1802 96.254,45.2472 95.625,45.2472 C94.943,45.2472 94.22,45.1802 93.712,44.9532" id="Fill-49" fill="#010202"></path><path d="M19.1739,68.3599 C19.2279,68.3599 19.2409,68.3329 19.2279,68.2939 L18.1169,65.4029 C18.1029,65.3619 18.0909,65.2959 18.0629,65.2959 C18.0229,65.2959 18.0089,65.3619 17.9969,65.4029 L16.8589,68.2799 C16.8319,68.3329 16.8589,68.3599 16.8989,68.3599 L19.1739,68.3599 Z M16.6579,68.9889 C16.5909,68.9889 16.5779,69.0029 16.5509,69.0699 L15.9219,70.5949 C15.8009,70.8759 15.7479,71.1569 15.7479,71.2919 C15.7479,71.4909 15.8559,71.6119 16.2159,71.6119 L16.3909,71.6119 C16.5379,71.6119 16.5639,71.6649 16.5639,71.7329 C16.5639,71.8269 16.4979,71.8529 16.3769,71.8529 C15.9889,71.8529 15.4409,71.8129 15.0659,71.8129 C14.9449,71.8129 14.3159,71.8529 13.7009,71.8529 C13.5539,71.8529 13.4869,71.8269 13.4869,71.7329 C13.4869,71.6649 13.5269,71.6119 13.6209,71.6119 C13.7269,71.6119 13.8619,71.5989 13.9679,71.5989 C14.5039,71.5189 14.7039,71.1699 14.9449,70.5949 L18.0229,63.4349 C18.1569,63.1139 18.2499,62.9799 18.3709,62.9799 C18.5449,62.9799 18.5989,63.0879 18.7189,63.3409 C18.9999,63.9699 20.9679,68.6279 21.7159,70.3539 C22.1719,71.3839 22.5059,71.5319 22.7199,71.5719 C22.8939,71.5989 23.0279,71.6119 23.1619,71.6119 C23.2689,71.6119 23.3219,71.6519 23.3219,71.7329 C23.3219,71.8269 23.2559,71.8529 22.8139,71.8529 C22.3999,71.8529 21.5429,71.8529 20.5519,71.8269 C20.3389,71.8129 20.2039,71.8129 20.2039,71.7329 C20.2039,71.6649 20.2319,71.6249 20.3519,71.6119 C20.4319,71.5989 20.5119,71.4909 20.4589,71.3579 L19.5489,69.0699 C19.5219,69.0029 19.4819,68.9889 19.4279,68.9889 L16.6579,68.9889 Z" id="Fill-51" fill="#A30134"></path><path d="M26.129,70.0728 C26.129,70.8228 26.17,71.0498 26.545,71.1978 C26.851,71.3178 27.12,71.3308 27.387,71.3308 C28.016,71.3308 28.832,70.9838 28.832,69.7248 C28.832,69.2028 28.605,68.3058 27.721,67.7048 C27.481,67.5308 27.159,67.4098 26.705,67.4098 L26.196,67.4098 C26.156,67.4098 26.129,67.4238 26.129,67.4908 L26.129,70.0728 Z M26.129,66.7268 C26.129,66.8218 26.17,66.8348 26.21,66.8478 C26.316,66.8748 26.49,66.8868 26.758,66.8868 C27.146,66.8868 27.481,66.8478 27.681,66.6878 C27.989,66.4468 28.217,66.0308 28.217,65.4818 C28.217,64.7198 27.762,63.7698 26.745,63.7698 C26.584,63.7698 26.357,63.7698 26.236,63.7968 C26.156,63.8098 26.129,63.8638 26.129,63.9838 L26.129,66.7268 Z M24.604,66.5398 C24.604,64.8138 24.604,64.4928 24.59,64.1318 C24.563,63.7428 24.456,63.6228 24.081,63.5158 C23.988,63.4888 23.788,63.4748 23.613,63.4748 C23.493,63.4748 23.413,63.4348 23.413,63.3548 C23.413,63.2758 23.506,63.2478 23.68,63.2478 C24.296,63.2478 25.046,63.2758 25.273,63.2758 C25.861,63.2758 26.638,63.2478 27.039,63.2478 C29.167,63.2478 29.542,64.3448 29.542,64.9478 C29.542,65.8308 28.886,66.5138 28.217,66.9418 C29.18,67.2498 30.384,68.0658 30.384,69.4038 C30.384,70.6208 29.421,71.8798 27.253,71.8798 C27.12,71.8798 26.718,71.8658 26.316,71.8398 C25.915,71.8268 25.5,71.8128 25.313,71.8128 C25.179,71.8128 24.925,71.8268 24.644,71.8268 C24.363,71.8398 24.068,71.8528 23.827,71.8528 C23.68,71.8528 23.6,71.8128 23.6,71.7328 C23.6,71.6788 23.64,71.6118 23.788,71.6118 C23.961,71.6118 24.095,71.5988 24.202,71.5718 C24.443,71.5188 24.51,71.3038 24.55,70.9698 C24.604,70.4888 24.604,69.5908 24.604,68.5468 L24.604,66.5398 Z" id="Fill-53" fill="#A30134"></path><g id="Group-57" transform="translate(31.000000, 63.000000)"><mask id="mask-10" fill="white"><use xlink:href="#path-9"></use></mask><g id="Clip-56"></g><path d="M8.8819,4.7574 C8.8819,2.2414 7.3699,0.6904 5.4699,0.6904 C4.1579,0.6904 2.6189,1.3844 2.6189,4.1954 C2.6189,6.5374 3.9579,8.3844 6.1789,8.3844 C7.0089,8.3844 8.8819,7.9954 8.8819,4.7574 M0.8799,4.5444 C0.8799,2.6044 2.2439,0.0884 5.8179,0.0884 C8.7879,0.0884 10.6349,1.7344 10.6349,4.3424 C10.6349,6.9524 8.7349,9.0004 5.6979,9.0004 C2.2719,9.0004 0.8799,6.5644 0.8799,4.5444" id="Fill-55" fill="#A30134" mask="url(#mask-10)"></path></g><g id="Group-60" transform="translate(42.000000, 63.000000)"><mask id="mask-12" fill="white"><use xlink:href="#path-11"></use></mask><g id="Clip-59"></g><path d="M9.4122,8.0904 C9.4122,8.3984 9.4122,8.4114 9.2652,8.4914 C8.4762,8.8794 7.3112,9.0004 6.3882,9.0004 C3.4972,9.0004 0.9412,7.6884 0.9412,4.5444 C0.9412,2.7244 1.9182,1.4514 3.0022,0.8234 C4.1262,0.1674 5.1832,0.0884 6.1742,0.0884 C6.9902,0.0884 8.0212,0.2204 8.2622,0.2754 C8.5022,0.3154 8.9172,0.3824 9.1982,0.3964 C9.3322,0.4084 9.3592,0.4494 9.3592,0.5284 C9.3592,0.6624 9.2782,0.9704 9.2782,2.4034 C9.2782,2.5764 9.2122,2.6574 9.1182,2.6574 C9.0372,2.6574 9.0112,2.6044 8.9972,2.5094 C8.9712,2.2554 8.9042,1.8944 8.5962,1.5724 C8.2482,1.2114 7.3652,0.7034 6.0402,0.7034 C5.3982,0.7034 4.5812,0.7154 3.7652,1.3724 C3.1092,1.9074 2.6812,2.7504 2.6812,4.1414 C2.6812,6.5904 4.2602,8.3714 6.7762,8.3714 C7.0842,8.3714 7.3252,8.3714 7.6062,8.2504 C7.7802,8.1694 7.8332,8.0494 7.8332,7.8494 L7.8332,6.8054 C7.8332,6.2434 7.8332,5.8154 7.8202,5.4674 C7.8072,5.0794 7.6862,4.9594 7.3112,4.8514 C7.2182,4.8244 7.0162,4.8114 6.8562,4.8114 C6.7492,4.8114 6.6692,4.7574 6.6692,4.6904 C6.6692,4.5974 6.7632,4.5834 6.9232,4.5834 C7.5382,4.5834 8.3822,4.6114 8.7302,4.6114 C9.1042,4.6114 9.7202,4.5834 10.1082,4.5834 C10.2682,4.5834 10.3492,4.5974 10.3492,4.6904 C10.3492,4.7574 10.2822,4.8114 10.2022,4.8114 C10.1082,4.8114 10.0142,4.8244 9.8812,4.8514 C9.5592,4.9054 9.4392,5.0654 9.4262,5.4674 C9.4122,5.8154 9.4122,6.2704 9.4122,6.8324 L9.4122,8.0904 Z" id="Fill-58" fill="#A30134" mask="url(#mask-12)"></path></g><path d="M57.7242,68.3599 C57.7772,68.3599 57.7912,68.3329 57.7772,68.2939 L56.6672,65.4029 C56.6532,65.3619 56.6402,65.2959 56.6132,65.2959 C56.5732,65.2959 56.5592,65.3619 56.5472,65.4029 L55.4092,68.2799 C55.3822,68.3329 55.4092,68.3599 55.4492,68.3599 L57.7242,68.3599 Z M55.2082,68.9889 C55.1412,68.9889 55.1282,69.0029 55.1012,69.0699 L54.4722,70.5949 C54.3512,70.8759 54.2982,71.1569 54.2982,71.2919 C54.2982,71.4909 54.4062,71.6119 54.7662,71.6119 L54.9412,71.6119 C55.0872,71.6119 55.1142,71.6649 55.1142,71.7329 C55.1142,71.8269 55.0482,71.8529 54.9272,71.8529 C54.5382,71.8529 53.9902,71.8129 53.6162,71.8129 C53.4952,71.8129 52.8662,71.8529 52.2502,71.8529 C52.1032,71.8529 52.0372,71.8269 52.0372,71.7329 C52.0372,71.6649 52.0772,71.6119 52.1702,71.6119 C52.2772,71.6119 52.4112,71.5989 52.5182,71.5989 C53.0542,71.5189 53.2542,71.1699 53.4952,70.5949 L56.5732,63.4349 C56.7072,63.1139 56.8002,62.9799 56.9212,62.9799 C57.0952,62.9799 57.1492,63.0879 57.2692,63.3409 C57.5502,63.9699 59.5172,68.6279 60.2662,70.3539 C60.7222,71.3839 61.0562,71.5319 61.2702,71.5719 C61.4442,71.5989 61.5782,71.6119 61.7122,71.6119 C61.8192,71.6119 61.8722,71.6519 61.8722,71.7329 C61.8722,71.8269 61.8062,71.8529 61.3642,71.8529 C60.9502,71.8529 60.0932,71.8529 59.1022,71.8269 C58.8882,71.8129 58.7542,71.8129 58.7542,71.7329 C58.7542,71.6649 58.7812,71.6249 58.9022,71.6119 C58.9822,71.5989 59.0622,71.4909 59.0092,71.3579 L58.0992,69.0699 C58.0722,69.0029 58.0322,68.9889 57.9782,68.9889 L55.2082,68.9889 Z" id="Fill-61" fill="#A30134"></path><path d="M64.7325,67.7989 C64.7325,69.0029 64.7465,69.8729 64.7595,70.0999 C64.7725,70.3809 64.7995,70.7819 64.8935,70.9029 C65.0405,71.1169 65.5085,71.3579 66.4325,71.3579 C67.5035,71.3579 68.2925,71.1699 69.0025,70.5819 C69.7645,69.9519 70.0055,68.9359 70.0055,67.7569 C70.0055,66.3129 69.4295,65.3759 68.9085,64.9209 C67.8235,63.9569 66.5395,63.8369 65.6165,63.8369 C65.3755,63.8369 64.9865,63.8639 64.8935,63.9179 C64.7865,63.9569 64.7465,64.0119 64.7465,64.1439 C64.7325,64.5329 64.7325,65.4699 64.7325,66.3659 L64.7325,67.7989 Z M63.1535,66.5399 C63.1535,64.8139 63.1535,64.4929 63.1405,64.1319 C63.1135,63.7429 63.0065,63.6229 62.6315,63.5159 C62.5385,63.4889 62.3375,63.4749 62.1635,63.4749 C62.0435,63.4749 61.9625,63.4349 61.9625,63.3549 C61.9625,63.2759 62.0565,63.2479 62.2305,63.2479 C62.8455,63.2479 63.5955,63.2759 63.9305,63.2759 C64.2915,63.2759 65.1335,63.2479 65.8435,63.2479 C67.3155,63.2479 69.2955,63.2479 70.5805,64.5469 C71.1695,65.1349 71.6915,66.0859 71.6915,67.4369 C71.6915,68.8679 71.0755,69.9519 70.4065,70.6089 C69.8715,71.1439 68.6275,71.9469 66.4595,71.9469 C66.0305,71.9469 65.5225,71.9059 65.0535,71.8799 C64.5855,71.8399 64.1575,71.8129 63.8625,71.8129 C63.7295,71.8129 63.4755,71.8269 63.1935,71.8269 C62.9125,71.8399 62.6185,71.8529 62.3775,71.8529 C62.2305,71.8529 62.1495,71.8129 62.1495,71.7329 C62.1495,71.6789 62.1905,71.6119 62.3375,71.6119 C62.5115,71.6119 62.6455,71.5989 62.7525,71.5719 C62.9925,71.5189 63.0605,71.3039 63.1005,70.9699 C63.1535,70.4879 63.1535,69.5909 63.1535,68.5469 L63.1535,66.5399 Z" id="Fill-63" fill="#A30134"></path><g id="Group-67" transform="translate(72.000000, 63.000000)"><mask id="mask-14" fill="white"><use xlink:href="#path-13"></use></mask><g id="Clip-66"></g><path d="M8.9864,4.7574 C8.9864,2.2414 7.4744,0.6904 5.5744,0.6904 C4.2624,0.6904 2.7234,1.3844 2.7234,4.1954 C2.7234,6.5374 4.0624,8.3844 6.2834,8.3844 C7.1134,8.3844 8.9864,7.9954 8.9864,4.7574 M0.9844,4.5444 C0.9844,2.6044 2.3494,0.0884 5.9224,0.0884 C8.8934,0.0884 10.7394,1.7344 10.7394,4.3424 C10.7394,6.9524 8.8394,9.0004 5.8024,9.0004 C2.3764,9.0004 0.9844,6.5644 0.9844,4.5444" id="Fill-65" fill="#A30134" mask="url(#mask-14)"></path></g><path d="M84.6891,71.7056 C84.5021,71.6246 84.4611,71.5716 84.4611,71.3176 C84.4611,70.7016 84.5151,69.9936 84.5281,69.8056 C84.5281,69.6316 84.5821,69.5116 84.6751,69.5116 C84.7831,69.5116 84.7961,69.6186 84.7961,69.6986 C84.7961,69.8456 84.8361,70.0866 84.9031,70.2876 C85.1571,71.1296 86.0411,71.4116 86.7771,71.4116 C87.7931,71.4116 88.4091,70.7686 88.4091,69.9656 C88.4091,69.4706 88.2891,68.9756 87.2451,68.3596 L86.5631,67.9586 C85.1711,67.1416 84.7161,66.3796 84.7161,65.3756 C84.7161,63.9836 86.0541,63.0876 87.6871,63.0876 C88.4491,63.0876 89.0521,63.1946 89.3591,63.2756 C89.4671,63.3016 89.5201,63.3406 89.5201,63.4216 C89.5201,63.5696 89.4801,63.8906 89.4801,64.7876 C89.4801,65.0286 89.4261,65.1486 89.3331,65.1486 C89.2521,65.1486 89.2121,65.0806 89.2121,64.9476 C89.2121,64.8406 89.1591,64.4936 88.9041,64.1976 C88.7311,63.9836 88.3561,63.6626 87.5931,63.6626 C86.7511,63.6626 85.9871,64.1046 85.9871,64.8806 C85.9871,65.3896 86.1741,65.7896 87.2321,66.3796 L87.7131,66.6466 C89.2651,67.5026 89.7481,68.3726 89.7481,69.4036 C89.7481,70.2476 89.4261,70.9286 88.5701,71.5326 C88.0081,71.9336 87.2321,71.9996 86.6031,71.9996 C85.9201,71.9996 85.1971,71.9336 84.6891,71.7056" id="Fill-68" fill="#A30134"></path><path d="M101.4669,54.0396 L72.6929,54.0396 C72.5359,53.6146 72.3429,53.2306 72.0999,52.9146 C71.8019,52.5336 71.4229,52.2766 70.9599,52.1416 C70.3319,52.1416 69.4819,52.4056 68.4259,52.9166 C67.4289,53.2826 66.2789,53.8326 64.9629,54.5776 C63.0439,55.6636 61.7289,56.3776 60.9889,56.7386 C60.7299,56.7896 60.4839,56.8246 60.2629,56.8246 L64.0599,53.5986 C64.1869,53.5566 64.5569,53.4516 65.1679,53.2796 C65.7789,53.1126 66.0859,52.8806 66.0859,52.5856 C65.8489,52.5586 65.6029,52.5466 65.3639,52.5256 C65.4349,52.5056 65.5089,52.4826 65.5789,52.4676 C65.3259,52.3356 64.9999,52.2506 64.5979,52.2066 C64.1959,52.1616 63.8069,52.1416 63.4279,52.1416 L61.2129,52.1416 C61.1269,52.1826 60.8959,52.1936 60.5149,52.1726 C60.1349,52.1536 59.7989,52.1416 59.5019,52.1416 C60.0089,52.7826 60.2609,53.4896 60.2609,54.2576 C60.2609,54.7286 60.1269,55.1886 59.8519,55.6336 C59.5769,56.0856 59.1779,56.4256 58.6489,56.6626 C58.1219,56.8966 57.5619,57.0156 56.9709,57.0156 C56.8569,57.0156 56.7509,56.9926 56.6419,56.9766 C56.2739,56.8056 55.9189,56.5616 55.5789,56.2356 C55.4529,56.0316 55.3889,55.8506 55.3889,55.6886 C55.3889,55.1616 55.5499,54.7756 55.8649,54.5296 C56.1809,54.2876 56.4649,54.1656 56.7179,54.1656 C56.7589,54.1656 57.0759,54.2396 57.6669,54.3866 C57.6849,54.3916 57.6989,54.3936 57.7169,54.3976 C57.8729,54.4756 58.0279,54.5616 58.1739,54.6716 L58.3339,54.5116 C58.5699,54.5396 58.7529,54.5326 58.8709,54.4836 C57.8579,53.6806 57.1309,53.1266 56.6879,52.8236 C56.2439,52.5206 55.7259,52.2116 55.1359,51.8886 C55.1159,51.9146 55.0999,51.9376 55.0789,51.9646 C55.0339,51.9406 54.9909,51.9126 54.9459,51.8886 C54.6089,52.0636 54.2929,52.3876 53.9979,52.8556 C53.7019,53.3236 53.4909,53.8046 53.3639,54.2926 C53.3639,54.5456 53.4579,54.8436 53.6479,55.1776 C53.8389,55.5166 54.0169,55.8566 54.1859,56.1906 C53.8839,56.1906 53.5979,55.9686 53.3319,55.5426 C53.1329,55.1546 52.9709,54.7206 52.8579,54.2306 C52.8579,53.6396 52.9619,53.0806 53.1749,52.5536 C53.3839,52.0266 53.7429,51.6546 54.2499,51.4426 C54.2069,51.1906 53.9749,50.9076 53.5539,50.5896 C53.1329,50.2746 52.8579,50.0756 52.7329,49.9886 C52.6049,49.9036 52.4569,49.8626 52.2879,49.8626 C52.2309,49.8626 52.1659,49.8766 52.0969,49.8986 C52.0299,49.8766 51.9669,49.8626 51.9079,49.8626 C51.7389,49.8626 51.5909,49.9036 51.4649,49.9886 C51.3379,50.0756 51.0649,50.2746 50.6419,50.5896 C50.2209,50.9076 49.9879,51.1906 49.9459,51.4426 C50.4529,51.6546 50.8109,52.0266 51.0219,52.5536 C51.2329,53.0806 51.3379,53.6396 51.3379,54.2306 C51.2239,54.7206 51.0629,55.1546 50.8649,55.5426 C50.5969,55.9686 50.3109,56.1906 50.0089,56.1906 C50.1789,55.8566 50.3589,55.5166 50.5479,55.1776 C50.7379,54.8436 50.8319,54.5456 50.8319,54.2926 C50.7059,53.8046 50.4939,53.3236 50.1989,52.8556 C49.9039,52.3876 49.5859,52.0636 49.2499,51.8886 C49.2039,51.9126 49.1629,51.9406 49.1179,51.9646 C49.0969,51.9376 49.0799,51.9146 49.0589,51.8886 C48.4699,52.2116 47.9509,52.5206 47.5099,52.8236 C47.0649,53.1266 46.3399,53.6806 45.3259,54.4836 C45.4439,54.5326 45.6259,54.5396 45.8629,54.5116 L46.0229,54.6716 C46.1689,54.5616 46.3209,54.4756 46.4779,54.3976 C46.4969,54.3936 46.5099,54.3916 46.5289,54.3866 C47.1199,54.2396 47.4369,54.1656 47.4779,54.1656 C47.7299,54.1656 48.0139,54.2876 48.3309,54.5296 C48.6479,54.7756 48.8069,55.1616 48.8069,55.6886 C48.8069,55.8506 48.7429,56.0316 48.6159,56.2356 C48.2759,56.5616 47.9209,56.8056 47.5529,56.9766 C47.4449,56.9926 47.3389,57.0156 47.2239,57.0156 C46.6329,57.0156 46.0739,56.8966 45.5469,56.6626 C45.0179,56.4256 44.6169,56.0856 44.3449,55.6336 C44.0689,55.1886 43.9329,54.7286 43.9329,54.2576 C43.9329,53.4896 44.1879,52.7826 44.6939,52.1416 C44.3969,52.1416 44.0609,52.1536 43.6809,52.1726 C43.2999,52.1936 43.0679,52.1826 42.9829,52.1416 L40.7689,52.1416 C40.3889,52.1416 39.9989,52.1616 39.5979,52.2066 C39.1969,52.2506 38.8699,52.3356 38.6159,52.4676 C38.6869,52.4826 38.7599,52.5056 38.8319,52.5256 C38.5929,52.5466 38.3469,52.5586 38.1109,52.5856 C38.1109,52.8806 38.4169,53.1126 39.0269,53.2796 C39.6399,53.4516 40.0099,53.5566 40.1349,53.5986 L43.9319,56.8246 C43.7119,56.8246 43.4659,56.7896 43.2079,56.7386 C42.4669,56.3776 41.1509,55.6636 39.2339,54.5776 C37.9169,53.8326 36.7659,53.2826 35.7689,52.9166 C34.7139,52.4056 33.8639,52.1416 33.2369,52.1416 C32.7719,52.2766 32.3929,52.5336 32.0969,52.9146 C31.8529,53.2306 31.6609,53.6146 31.5029,54.0396 L2.7289,54.0396 L2.7359,54.8296 L32.4709,54.8416 C32.4709,54.8416 32.7169,54.5026 32.7689,54.4186 L32.7939,54.4186 C32.7999,54.3896 32.8119,54.3726 32.8189,54.3436 C32.9039,54.2146 32.9739,54.0876 33.0769,53.9516 C33.2689,53.7006 33.5319,53.4976 33.8699,53.3446 C34.9669,53.3446 36.4119,53.8656 38.2039,54.9116 C39.9989,55.9586 41.4119,56.6746 42.4459,57.0656 C43.4809,57.4546 44.8189,57.6476 46.4659,57.6476 C47.3499,57.6476 48.1729,57.5466 48.9339,57.3466 C49.6929,57.1476 50.3889,56.8066 51.0219,56.3236 L51.0289,56.3146 C51.4419,56.0366 51.7989,55.7086 52.0969,55.3296 C52.3979,55.7086 52.7549,56.0366 53.1669,56.3146 L53.1749,56.3236 C53.8069,56.8066 54.5039,57.1476 55.2629,57.3466 C56.0219,57.5466 56.8439,57.6476 57.7299,57.6476 C59.3769,57.6476 60.7159,57.4546 61.7499,57.0656 C62.7839,56.6746 64.1959,55.9586 65.9919,54.9116 C67.7829,53.8656 69.2279,53.3446 70.3259,53.3446 C70.6639,53.4976 70.9269,53.7006 71.1179,53.9516 C71.2219,54.0876 71.2929,54.2146 71.3769,54.3436 C71.3839,54.3726 71.3959,54.3896 71.4019,54.4186 L71.4269,54.4186 C71.4789,54.5026 71.6079,54.8416 71.6079,54.8416 L101.4919,54.8416 L101.4669,54.0396 Z" id="Fill-70" fill="#A30134"></path></g></g></svg> 