<?xml version="1.0" encoding="utf-8"?>
<!-- Generator: Adobe Illustrator 17.0.0, SVG Export Plug-In . SVG Version: 6.00 Build 0)  -->
<!DOCTYPE svg PUBLIC "-//W3C//DTD SVG 1.1//EN" "http://www.w3.org/Graphics/SVG/1.1/DTD/svg11.dtd">
<svg version="1.1"
	 id="svg2" sodipodi:docname="Airdrop - Copie.svg" inkscape:version="0.48.2 r9819" xmlns:dc="http://purl.org/dc/elements/1.1/" xmlns:cc="http://creativecommons.org/ns#" xmlns:rdf="http://www.w3.org/1999/02/22-rdf-syntax-ns#" xmlns:svg="http://www.w3.org/2000/svg" xmlns:sodipodi="http://sodipodi.sourceforge.net/DTD/sodipodi-0.dtd" xmlns:inkscape="http://www.inkscape.org/namespaces/inkscape"
	 xmlns="http://www.w3.org/2000/svg" xmlns:xlink="http://www.w3.org/1999/xlink" x="0px" y="0px" width="497px" height="497px"
	 viewBox="52.5 52.5 497 497" enable-background="new 52.5 52.5 497 497" xml:space="preserve">
<sodipodi:namedview  inkscape:window-maximized="1" inkscape:window-y="-8" inkscape:current-layer="layer1" inkscape:document-units="px" inkscape:pageopacity="0.0" inkscape:window-x="-8" inkscape:window-height="706" inkscape:window-width="1366" inkscape:pageshadow="2" showgrid="false" inkscape:cy="36.893627" inkscape:cx="-298.61733" inkscape:zoom="0.37410882" borderopacity="1.0" bordercolor="#666666" pagecolor="#ffffff" id="base">
	</sodipodi:namedview>
<g id="layer1" transform="translate(0,-450.36218)" inkscape:groupmode="layer" inkscape:label="Calque 1">
	<g id="g3062" transform="matrix(6.6666666,0,0,6.6666666,-5.6668106,-5957.7191)">
		<path id="rect2996" inkscape:connector-curvature="0" fill="#2C4B9B" d="M29.322,975.537h33.356
			c7.837,0,14.147,6.31,14.147,14.147v33.356c0,7.838-6.31,14.147-14.147,14.147H29.322c-7.837,0-14.147-6.31-14.147-14.147v-33.356
			C15.175,981.847,21.485,975.537,29.322,975.537L29.322,975.537z"/>
		
			<path id="rect3027" sodipodi:nodetypes="sccccccccaaaccccsscsscccccccccccccccsscccccsscccccaaacc" inkscape:connector-curvature="0" fill="#FFFFFF" d="
			M25.093,990.314c-0.392,0-0.762,0.068-1.111,0.207l7.003,7.21l7.081,7.339l0.129,0.155l0.207,0.207l0.207,0.207l0.413,0.439
			l6.073,6.228c0.101,0.063,0.394,0.334,0.623,0.449c0.295,0.147,0.615,0.283,0.944,0.295c0.356,0.013,0.719-0.089,1.039-0.245
			c0.24-0.117,0.346-0.284,0.624-0.499l7.029-7.262l7.107-7.313l6.848-7.055c-0.44-0.238-0.927-0.362-1.447-0.362H25.093z
			 M22.948,991.193c-0.747,0.708-1.215,1.771-1.215,2.972v23.672c0,0.972,0.312,1.855,0.827,2.533l0.982-0.93l7.313-7.107
			l6.486-6.28l-0.129-0.155l-7.107-7.313L23,991.244L22.948,991.193z M70.24,991.425l-6.926,7.158l-7.081,7.313l-0.129,0.129
			l6.745,6.538l7.313,7.107l0.439,0.413c0.394-0.632,0.62-1.41,0.62-2.248v-23.672C71.222,993.094,70.851,992.124,70.24,991.425z
			 M38.17,1006.905l-6.461,6.28l-7.339,7.107l-0.93,0.904c0.49,0.316,1.049,0.517,1.654,0.517h42.769
			c0.728,0,1.388-0.28,1.938-0.724l-0.465-0.465l-7.339-7.107l-6.745-6.512l-6.073,6.254c-0.329,0.218-0.548,0.46-0.869,0.608
			c-0.517,0.239-1.083,0.441-1.652,0.432c-0.571-0.009-1.13-0.232-1.642-0.484c-0.257-0.126-0.394-0.252-0.695-0.505L38.17,1006.905
			z"/>
	</g>
</g>
</svg>
